<?xml version="1.0" standalone="no"?>
<!DOCTYPE svg PUBLIC "-//W3C//DTD SVG 20010904//EN"
 "http://www.w3.org/TR/2001/REC-SVG-20010904/DTD/svg10.dtd">
<svg version="1.0" xmlns="http://www.w3.org/2000/svg"
 width="128.000000pt" height="128.000000pt" viewBox="0 0 128.000000 128.000000"
 preserveAspectRatio="xMidYMid meet">

<g transform="translate(0.000000,128.000000) scale(0.100000,-0.100000)"
fill="#000000" stroke="none">
<path d="M161 1254 c-21 -27 -21 -32 -19 -627 3 -587 3 -600 23 -613 17 -11
27 -10 68 8 l48 21 52 -21 c65 -27 76 -27 138 -1 l49 21 49 -21 c62 -26 80
-26 142 0 l49 21 49 -21 c62 -26 77 -26 136 0 49 22 56 21 117 -5 36 -15 39
-15 58 4 20 20 20 32 20 614 0 585 0 594 -21 620 l-20 26 -459 0 -459 0 -20
-26z m927 -26 c15 -15 18 -1178 3 -1178 -5 0 -22 7 -37 15 -40 21 -76 19 -128
-7 l-44 -21 -51 21 c-62 27 -80 27 -142 1 l-49 -21 -49 21 c-62 26 -80 26
-142 -1 l-51 -21 -44 21 c-51 25 -89 27 -124 7 -14 -8 -31 -14 -37 -15 -18 0
-19 1160 -1 1178 17 17 879 17 896 0z"/>
<path d="M277 1106 c-3 -8 -3 -17 0 -20 8 -8 488 -8 496 0 3 3 3 12 0 20 -8
21 -488 21 -496 0z"/>
<path d="M880 1100 c0 -19 5 -21 63 -18 47 2 62 7 62 18 0 11 -15 16 -62 18
-58 3 -63 1 -63 -18z"/>
<path d="M276 992 c-2 -4 -1 -13 3 -20 6 -9 49 -12 167 -10 133 3 159 5 159
18 0 13 -26 15 -162 18 -89 1 -164 -1 -167 -6z"/>
<path d="M880 980 c0 -19 5 -21 63 -18 47 2 62 7 62 18 0 11 -15 16 -62 18
-58 3 -63 1 -63 -18z"/>
<path d="M282 878 c-8 -8 -9 -15 -1 -25 9 -10 63 -13 243 -13 237 0 271 5 245
37 -15 18 -469 19 -487 1z"/>
<path d="M884 875 c-10 -25 6 -35 55 -35 52 0 77 15 60 37 -16 18 -108 17
-115 -2z"/>
<path d="M277 756 c-3 -8 -3 -17 0 -20 4 -3 80 -6 170 -6 151 0 164 1 161 18
-3 15 -20 17 -164 20 -133 2 -163 0 -167 -12z"/>
<path d="M887 764 c-4 -4 -7 -14 -7 -21 0 -11 15 -13 63 -11 47 2 62 7 62 18
0 11 -14 16 -55 18 -31 2 -59 0 -63 -4z"/>
<path d="M280 630 c0 -20 5 -21 98 -18 78 2 97 6 97 18 0 12 -19 16 -97 18
-93 3 -98 2 -98 -18z"/>
<path d="M880 630 c0 -19 5 -21 63 -18 47 2 62 7 62 18 0 11 -15 16 -62 18
-58 3 -63 1 -63 -18z"/>
<path d="M276 522 c-2 -4 -1 -13 3 -20 6 -9 49 -12 167 -10 142 3 159 5 162
21 3 16 -10 17 -162 17 -91 0 -167 -4 -170 -8z"/>
<path d="M882 513 c3 -15 13 -18 63 -18 47 0 60 3 60 15 0 11 -15 16 -63 18
-57 3 -63 1 -60 -15z"/>
<path d="M917 370 c-41 -22 -47 -58 -14 -85 33 -25 38 -62 8 -45 -26 13 -31
13 -31 -5 0 -8 10 -20 23 -26 12 -7 26 -18 30 -26 6 -10 16 -6 43 19 40 38 43
62 9 84 -30 20 -33 44 -5 44 29 0 25 22 -8 40 -24 14 -30 14 -55 0z m10 -52
c-3 -8 -6 -5 -6 6 -1 11 2 17 5 13 3 -3 4 -12 1 -19z m40 -80 c-3 -8 -6 -5 -6
6 -1 11 2 17 5 13 3 -3 4 -12 1 -19z"/>
<path d="M252 278 l3 -83 240 0 240 0 3 83 3 82 -246 0 -246 0 3 -82z m448 -3
l0 -45 -205 0 -205 0 0 45 0 45 205 0 205 0 0 -45z"/>
</g>
</svg>
